<svg width="54" height="54" viewBox="0 0 54 54" fill="none" xmlns="http://www.w3.org/2000/svg">
<path d="M37.206 35.8875L41.976 31.113L34.8188 23.9535L42.7725 15.9998L38.0025 11.2275L30.0465 19.1813L22.887 12.0218L18.1125 16.794L37.206 35.8875ZM34.0223 39.069L14.931 19.9778L8.568 26.3408L27.6593 45.432L34.0223 39.069ZM30.0465 12.8183L36.4095 6.45301C36.8314 6.0312 37.4036 5.79424 38.0003 5.79424C38.5969 5.79424 39.1691 6.0312 39.591 6.45301L47.547 14.409C47.9688 14.8309 48.2058 15.4031 48.2058 15.9998C48.2058 16.5964 47.9688 17.1686 47.547 17.5905L41.1818 23.9535L46.7505 29.5223C46.9597 29.7312 47.1257 29.9794 47.2389 30.2525C47.3521 30.5257 47.4104 30.8184 47.4104 31.1141C47.4104 31.4098 47.3521 31.7026 47.2389 31.9757C47.1257 32.2489 46.9597 32.497 46.7505 32.706L29.25 50.2065C28.8281 50.6283 28.2559 50.8653 27.6593 50.8653C27.0626 50.8653 26.4904 50.6283 26.0685 50.2065L3.7935 27.9315C3.37169 27.5096 3.13473 26.9374 3.13473 26.3408C3.13473 25.7441 3.37169 25.1719 3.7935 24.75L21.294 7.2495C21.503 7.04031 21.7511 6.87435 22.0243 6.76112C22.2974 6.64789 22.5902 6.58961 22.8859 6.58961C23.1816 6.58961 23.4743 6.64789 23.7475 6.76112C24.0206 6.87435 24.2688 7.04031 24.4778 7.2495L30.0465 12.8183Z" fill="#166534"/>
</svg>
