<svg width="54" height="54" viewBox="0 0 54 54" fill="none" xmlns="http://www.w3.org/2000/svg">
<path d="M27 6.975L15.8625 18.1125C13.66 20.3152 12.1601 23.1216 11.5525 26.1768C10.9449 29.2319 11.2569 32.3987 12.449 35.2765C13.6412 38.1543 15.6599 40.6141 18.2499 42.3446C20.84 44.0752 23.885 44.9989 27 44.9989C30.115 44.9989 33.16 44.0752 35.7501 42.3446C38.3401 40.6141 40.3588 38.1543 41.5509 35.2765C42.7431 32.3987 43.0551 29.2319 42.4475 26.1768C41.8399 23.1216 40.34 20.3152 38.1375 18.1125L27 6.975ZM27 0.612L41.319 14.931C44.151 17.763 46.0796 21.3712 46.8609 25.2993C47.6422 29.2274 47.2412 33.299 45.7085 36.9992C44.1758 40.6994 41.5804 43.862 38.2503 46.0871C34.9202 48.3122 31.0051 49.4998 27 49.4998C22.9949 49.4998 19.0798 48.3122 15.7497 46.0871C12.4196 43.862 9.82414 40.6994 8.29146 36.9992C6.75878 33.299 6.35774 29.2274 7.13907 25.2993C7.9204 21.3712 9.84901 17.763 12.681 14.931L27 0.612V0.612ZM27 40.5V18C29.9837 18 32.8452 19.1853 34.9549 21.295C37.0647 23.4048 38.25 26.2663 38.25 29.25C38.25 32.2337 37.0647 35.0952 34.9549 37.205C32.8452 39.3147 29.9837 40.5 27 40.5V40.5Z" fill="#166534"/>
</svg>
