<svg width="45" height="45" viewBox="0 0 45 45" fill="none" xmlns="http://www.w3.org/2000/svg">
<path d="M3.75 9.375L16.875 3.75L28.125 9.375L39.9431 4.31063C40.0858 4.24947 40.2414 4.22469 40.396 4.23852C40.5506 4.25234 40.6994 4.30434 40.8289 4.38983C40.9584 4.47533 41.0647 4.59166 41.1382 4.72837C41.2117 4.86508 41.2501 5.01791 41.25 5.17313V35.625L28.125 41.25L16.875 35.625L5.05688 40.6894C4.91421 40.7505 4.7586 40.7753 4.604 40.7615C4.4494 40.7477 4.30065 40.6957 4.1711 40.6102C4.04155 40.5247 3.93526 40.4083 3.86176 40.2716C3.78827 40.1349 3.74986 39.9821 3.75 39.8269V9.375ZM30 36.3656L37.5 33.1519V9.43687L30 12.6506V36.3656ZM26.25 36.12V12.63L18.75 8.88V32.37L26.25 36.12ZM15 32.3494V8.63438L7.5 11.8481V35.5631L15 32.3494Z" fill="black"/>
</svg>
