<svg width="54" height="54" viewBox="0 0 54 54" fill="none" xmlns="http://www.w3.org/2000/svg">
<path d="M11.25 11.25V18H42.75V11.25H11.25ZM9 6.75H45C45.5967 6.75 46.169 6.98705 46.591 7.40901C47.0129 7.83097 47.25 8.40326 47.25 9V20.25C47.25 20.8467 47.0129 21.419 46.591 21.841C46.169 22.2629 45.5967 22.5 45 22.5H9C8.40326 22.5 7.83097 22.2629 7.40901 21.841C6.98705 21.419 6.75 20.8467 6.75 20.25V9C6.75 8.40326 6.98705 7.83097 7.40901 7.40901C7.83097 6.98705 8.40326 6.75 9 6.75V6.75ZM13.5 27H27C27.5967 27 28.169 27.2371 28.591 27.659C29.0129 28.081 29.25 28.6533 29.25 29.25V36H31.5V49.5H22.5V36H24.75V31.5H11.25C10.6533 31.5 10.081 31.2629 9.65901 30.841C9.23705 30.419 9 29.8467 9 29.25V24.75H13.5V27ZM39.897 30.897L43.875 26.919L47.853 30.897C48.6395 31.6837 49.1751 32.686 49.392 33.7771C49.6089 34.8682 49.4975 35.9991 49.0717 37.0269C48.6459 38.0546 47.9249 38.9331 46.9999 39.5511C46.0749 40.1691 44.9875 40.499 43.875 40.499C42.7625 40.499 41.6751 40.1691 40.7501 39.5511C39.8251 38.9331 39.1041 38.0546 38.6783 37.0269C38.2525 35.9991 38.1411 34.8682 38.358 33.7771C38.5749 32.686 39.1105 31.6837 39.897 30.897V30.897Z" fill="#166534"/>
</svg>
