<svg width="34" height="34" viewBox="0 0 34 34" fill="none" xmlns="http://www.w3.org/2000/svg">
<path d="M4.99375 1.13313C6.16384 0.715704 7.42838 0.638982 8.64036 0.911881C9.85233 1.18478 10.9619 1.79609 11.8402 2.67474C12.7185 3.55339 13.3293 4.66328 13.6016 5.87537C13.874 7.08747 13.7967 8.35197 13.3788 9.52188L33.7131 29.8563L29.7344 33.8331L9.4 13.5006C8.22991 13.9181 6.96537 13.9948 5.75339 13.7219C4.54142 13.449 3.4318 12.8377 2.55355 11.959C1.67529 11.0804 1.06448 9.97048 0.792122 8.75838C0.519765 7.54629 0.597053 6.28178 1.015 5.11188L5.2075 9.30625C5.46694 9.57488 5.77729 9.78914 6.12043 9.93654C6.46356 10.0839 6.83262 10.1615 7.20606 10.1648C7.5795 10.168 7.94985 10.0969 8.2955 9.95544C8.64114 9.81402 8.95516 9.60519 9.21924 9.34111C9.48331 9.07704 9.69215 8.76302 9.83356 8.41737C9.97498 8.07173 10.0461 7.70138 10.0429 7.32794C10.0396 6.9545 9.96206 6.58544 9.81466 6.2423C9.66726 5.89917 9.453 5.58882 9.18438 5.32938L4.99188 1.13125L4.99375 1.13313ZM24.4319 4.66563L30.3981 1.35063L33.0494 4.00188L29.7344 9.96813L26.4194 10.6319L22.4444 14.6088L19.7913 11.9575L23.7681 7.98063L24.4319 4.66563ZM11.1738 19.2494L15.1506 23.2281L5.86938 32.5094C5.35757 33.0164 4.67072 33.3077 3.95046 33.3232C3.23021 33.3386 2.53147 33.0772 1.99835 32.5926C1.46523 32.1081 1.13837 31.4374 1.08518 30.7189C1.032 30.0005 1.25654 29.289 1.7125 28.7313L1.89438 28.5306L11.1756 19.2494H11.1738Z" fill="black"/>
</svg>
