<svg width="45" height="45" viewBox="0 0 45 45" fill="none" xmlns="http://www.w3.org/2000/svg">
<path d="M16.875 1.875V5.625H28.125V1.875H31.875V5.625H39.375C39.8723 5.625 40.3492 5.82254 40.7008 6.17417C41.0525 6.52581 41.25 7.00272 41.25 7.5V37.5C41.25 37.9973 41.0525 38.4742 40.7008 38.8258C40.3492 39.1775 39.8723 39.375 39.375 39.375H5.625C5.12772 39.375 4.65081 39.1775 4.29917 38.8258C3.94754 38.4742 3.75 37.9973 3.75 37.5V7.5C3.75 7.00272 3.94754 6.52581 4.29917 6.17417C4.65081 5.82254 5.12772 5.625 5.625 5.625H13.125V1.875H16.875ZM37.5 15H7.5V35.625H37.5V15ZM28.1925 19.005L30.8438 21.6562L21.5625 30.9375L14.9325 24.3075L17.5875 21.6562L21.5644 25.635L28.1944 19.005H28.1925Z" fill="black"/>
</svg>
